<svg xmlns="http://www.w3.org/2000/svg" width="48" height="48" viewBox="0 0 48 48" fill="none">
  <rect width="48" height="48" rx="6" fill="#0d0f14"/>
  <g stroke-linecap="round" stroke-linejoin="round">
    <path d="M24 8C24 8 36 20 36 28C36 34.627 30.627 40 24 40C17.373 40 12 34.627 12 28C12 20 24 8 24 8Z" fill="#ff6a00" opacity="0.25"/>
    <path d="M24 14C24 14 32 22 32 28C32 32.418 28.418 36 24 36C19.582 36 16 32.418 16 28C16 22 24 14 24 14Z" fill="#ff8c2a" opacity="0.5"/>
    <path d="M24 20C24 20 28 24 28 28C28 30.209 26.209 32 24 32C21.791 32 20 30.209 20 28C20 24 24 20 24 20Z" fill="#ffaa55"/>
    <line x1="24" y1="8" x2="24" y2="14" stroke="#ff6a00" stroke-width="2"/>
    <line x1="24" y1="40" x2="24" y2="44" stroke="#ff6a00" stroke-width="2"/>
    <line x1="12" y1="28" x2="8" y2="28" stroke="#ff6a00" stroke-width="2"/>
    <line x1="36" y1="28" x2="40" y2="28" stroke="#ff6a00" stroke-width="2"/>
  </g>
</svg>
